<svg width="31" height="31" viewBox="0 0 31 31" fill="none" xmlns="http://www.w3.org/2000/svg">
<g clip-path="url(#clip0_1_2)">
<rect width="31" height="31" fill="white"/>
<path d="M6.62963 3.55555H8.25926V5.18519H6.62963V3.55555ZM8.25926 3.55555H9.88889V5.18519H8.25926V3.55555ZM9.88889 3.55555H11.5185V5.18519H9.88889V3.55555ZM11.5185 3.55555H13.1481V5.18519H11.5185V3.55555ZM11.5185 5.18519H13.1481V6.81481H11.5185V5.18519ZM11.5185 6.81481H13.1481V8.44444H11.5185V6.81481ZM11.5185 8.44444H13.1481V10.0741H11.5185V8.44444ZM6.62963 5.18519H8.25926V6.81481H6.62963V5.18519ZM6.62963 6.81481H8.25926V8.44444H6.62963V6.81481ZM6.62963 8.44444H8.25926V10.0741H6.62963V8.44444ZM6.62963 11.7037H8.25926V13.3333H6.62963V11.7037ZM6.62963 13.3333H8.25926V14.963H6.62963V13.3333ZM6.62963 14.963H8.25926V16.5926H6.62963V14.963ZM6.62963 16.5926H8.25926V18.2222H6.62963V16.5926ZM6.62963 18.2222H8.25926V19.8519H6.62963V18.2222ZM8.25926 19.8519H9.88889V21.4815H8.25926V19.8519ZM8.25926 21.4815H9.88889V23.1111H8.25926V21.4815ZM8.25926 23.1111H9.88889V24.7407H8.25926V23.1111ZM8.25926 24.7407H9.88889V26.3704H8.25926V24.7407ZM8.25926 26.3704H9.88889V28H8.25926V26.3704ZM6.62963 10.0741H8.25926V11.7037H6.62963V10.0741ZM6.62963 19.8519H8.25926V21.4815H6.62963V19.8519ZM6.62963 21.4815H8.25926V23.1111H6.62963V21.4815ZM6.62963 23.1111H8.25926V24.7407H6.62963V23.1111ZM6.62963 24.7407H8.25926V26.3704H6.62963V24.7407ZM6.62963 26.3704H8.25926V28H6.62963V26.3704ZM9.88889 26.3704H11.5185V28H9.88889V26.3704ZM9.88889 24.7407H11.5185V26.3704H9.88889V24.7407ZM9.88889 23.1111H11.5185V24.7407H9.88889V23.1111ZM9.88889 21.4815H11.5185V23.1111H9.88889V21.4815ZM9.88889 18.2222H11.5185V19.8519H9.88889V18.2222ZM9.88889 16.5926H11.5185V18.2222H9.88889V16.5926ZM9.88889 13.3333H11.5185V14.963H9.88889V13.3333ZM9.88889 11.7037H11.5185V13.3333H9.88889V11.7037ZM9.88889 10.0741H11.5185V11.7037H9.88889V10.0741ZM9.88889 14.963H11.5185V16.5926H9.88889V14.963ZM9.88889 19.8519H11.5185V21.4815H9.88889V19.8519ZM8.25926 18.2222H9.88889V19.8519H8.25926V18.2222ZM8.25926 16.5926H9.88889V18.2222H8.25926V16.5926ZM8.25926 14.963H9.88889V16.5926H8.25926V14.963ZM8.25926 13.3333H9.88889V14.963H8.25926V13.3333ZM8.25926 11.7037H9.88889V13.3333H8.25926V11.7037ZM8.25926 10.0741H9.88889V11.7037H8.25926V10.0741ZM8.25926 8.44444H9.88889V10.0741H8.25926V8.44444ZM8.25926 6.81481H9.88889V8.44444H8.25926V6.81481ZM8.25926 5.18519H9.88889V6.81481H8.25926V5.18519ZM9.88889 5.18519H11.5185V6.81481H9.88889V5.18519ZM9.88889 6.81481H11.5185V8.44444H9.88889V6.81481ZM9.88889 8.44444H11.5185V10.0741H9.88889V8.44444ZM11.5185 10.0741H13.1481V11.7037H11.5185V10.0741ZM11.5185 11.7037H13.1481V13.3333H11.5185V11.7037ZM13.1481 11.7037H14.7778V13.3333H13.1481V11.7037ZM13.1481 13.3333H14.7778V14.963H13.1481V13.3333ZM11.5185 13.3333H13.1481V14.963H11.5185V13.3333ZM13.1481 10.0741H14.7778V11.7037H13.1481V10.0741ZM13.1481 8.44444H14.7778V10.0741H13.1481V8.44444ZM13.1481 6.81481H14.7778V8.44444H13.1481V6.81481ZM13.1481 14.963H14.7778V16.5926H13.1481V14.963ZM14.7778 14.963H16.4074V16.5926H14.7778V14.963ZM14.7778 13.3333H16.4074V14.963H14.7778V13.3333ZM14.7778 11.7037H16.4074V13.3333H14.7778V11.7037ZM14.7778 10.0741H16.4074V11.7037H14.7778V10.0741ZM13.1481 16.5926H14.7778V18.2222H13.1481V16.5926ZM14.7778 16.5926H16.4074V18.2222H14.7778V16.5926ZM16.4074 16.5926H18.037V18.2222H16.4074V16.5926ZM16.4074 14.963H18.037V16.5926H16.4074V14.963ZM16.4074 13.3333H18.037V14.963H16.4074V13.3333ZM14.7778 19.8519H16.4074V21.4815H14.7778V19.8519ZM14.7778 18.2222H16.4074V19.8519H14.7778V18.2222ZM16.4074 18.2222H18.037V19.8519H16.4074V18.2222ZM16.4074 19.8519H18.037V21.4815H16.4074V19.8519ZM18.037 18.2222H19.6667V19.8519H18.037V18.2222ZM18.037 16.5926H19.6667V18.2222H18.037V16.5926ZM18.037 19.8519H19.6667V21.4815H18.037V19.8519ZM18.037 21.4815H19.6667V23.1111H18.037V21.4815ZM16.4074 21.4815H18.037V23.1111H16.4074V21.4815ZM16.4074 23.1111H18.037V24.7407H16.4074V23.1111ZM18.037 23.1111H19.6667V24.7407H18.037V23.1111ZM18.037 24.7407H19.6667V26.3704H18.037V24.7407ZM18.037 26.3704H19.6667V28H18.037V26.3704ZM19.6667 26.3704H21.2963V28H19.6667V26.3704ZM21.2963 26.3704H22.9259V28H21.2963V26.3704ZM22.9259 26.3704H24.5556V28H22.9259V26.3704ZM22.9259 24.7407H24.5556V26.3704H22.9259V24.7407ZM21.2963 23.1111H22.9259V24.7407H21.2963V23.1111ZM21.2963 21.4815H22.9259V23.1111H21.2963V21.4815ZM21.2963 19.8519H22.9259V21.4815H21.2963V19.8519ZM21.2963 18.2222H22.9259V19.8519H21.2963V18.2222ZM21.2963 16.5926H22.9259V18.2222H21.2963V16.5926ZM22.9259 19.8519H24.5556V21.4815H22.9259V19.8519ZM22.9259 21.4815H24.5556V23.1111H22.9259V21.4815ZM22.9259 23.1111H24.5556V24.7407H22.9259V23.1111ZM21.2963 24.7407H22.9259V26.3704H21.2963V24.7407ZM19.6667 24.7407H21.2963V26.3704H19.6667V24.7407ZM19.6667 23.1111H21.2963V24.7407H19.6667V23.1111ZM19.6667 21.4815H21.2963V23.1111H19.6667V21.4815ZM19.6667 19.8519H21.2963V21.4815H19.6667V19.8519ZM19.6667 18.2222H21.2963V19.8519H19.6667V18.2222ZM19.6667 16.5926H21.2963V18.2222H19.6667V16.5926ZM19.6667 14.963H21.2963V16.5926H19.6667V14.963ZM21.2963 14.963H22.9259V16.5926H21.2963V14.963ZM22.9259 18.2222H24.5556V19.8519H22.9259V18.2222ZM22.9259 16.5926H24.5556V18.2222H22.9259V16.5926ZM22.9259 14.963H24.5556V16.5926H22.9259V14.963ZM22.9259 13.3333H24.5556V14.963H22.9259V13.3333ZM22.9259 11.7037H24.5556V13.3333H22.9259V11.7037ZM22.9259 10.0741H24.5556V11.7037H22.9259V10.0741ZM21.2963 10.0741H22.9259V11.7037H21.2963V10.0741ZM21.2963 8.44444H22.9259V10.0741H21.2963V8.44444ZM19.6667 10.0741H21.2963V11.7037H19.6667V10.0741ZM19.6667 11.7037H21.2963V13.3333H19.6667V11.7037ZM19.6667 13.3333H21.2963V14.963H19.6667V13.3333ZM21.2963 13.3333H22.9259V14.963H21.2963V13.3333ZM21.2963 11.7037H22.9259V13.3333H21.2963V11.7037ZM19.6667 3.55555H21.2963V5.18519H19.6667V3.55555ZM21.2963 3.55555H22.9259V5.18519H21.2963V3.55555ZM22.9259 3.55555H24.5556V5.18519H22.9259V3.55555ZM22.9259 5.18519H24.5556V6.81481H22.9259V5.18519ZM22.9259 6.81481H24.5556V8.44444H22.9259V6.81481ZM22.9259 8.44444H24.5556V10.0741H22.9259V8.44444ZM21.2963 6.81481H22.9259V8.44444H21.2963V6.81481ZM21.2963 5.18519H22.9259V6.81481H21.2963V5.18519ZM19.6667 8.44444H21.2963V10.0741H19.6667V8.44444ZM19.6667 6.81481H21.2963V8.44444H19.6667V6.81481ZM19.6667 5.18519H21.2963V6.81481H19.6667V5.18519Z" fill="black"/>
</g>
<defs>
<clipPath id="clip0_1_2">
<rect width="31" height="31" fill="white"/>
</clipPath>
</defs>
</svg>
